#!OML:ASF F:\twosubjects\two\Thursday\Session 1\justin.ASF
:FULLY-SPECIFIED
:DEGREES
378
root 12.0743 18.2179 10.5365 -170.769 -15.1615 -176.673
lowerback -5.82395 1.68583 -3.52664
upperback 1.18081 1.62881 8.57214
thorax 4.16316 0.380084 11.3555
lowerneck -21.8 -4.67857 -12.6055
upperneck 26.729 -4.90037 6.54946
head 13.0854 -2.82449 3.75516
rclavicle 3.4191e-014 1.43125e-014
rhumerus -25.7764 -10.2969 -76.1083
rradius 26.8291
rwrist -1.33641
rhand -12.5655 8.78468
rfingers 7.12502
rthumb 13.512 -20.757
lclavicle 3.4191e-014 1.43125e-014
lhumerus -29.5609 0.393767 99.878
lradius 28.8823
lwrist -5.59583
lhand -2.5124 38.3412
lfingers 7.12502
lthumb 23.1819 66.9662
rfemur -17.5394 -4.79994 28.6315
rtibia 32.889
rfoot -22.6803 -15.7222
rtoes -9.21884
lfemur -5.61595 -1.97826 -7.795
ltibia 12.5375
lfoot -14.5932 -7.75636
ltoes -18.6972
379
root 12.0741 18.218 10.5462 -170.713 -15.2843 -176.707
lowerback -5.88612 1.69744 -3.4991
upperback 1.2208 1.63607 8.59115
thorax 4.23958 0.378069 11.3659
lowerneck -21.7192 -4.58784 -12.4674
upperneck 26.5371 -4.74794 6.37381
head 12.9635 -2.75768 3.6869
rclavicle 3.33958e-014 4.77083e-015
rhumerus -25.6845 -10.147 -76.0896
rradius 26.9145
rwrist -1.67179
rhand -12.722 8.79516
rfingers 7.12502
rthumb 13.3612 -20.7564
lclavicle 3.33958e-014 4.77083e-015
lhumerus -29.4999 0.430384 99.9377
lradius 28.8306
lwrist -5.50335
lhand -3.05536 38.5037
lfingers 7.12502
lthumb 22.6608 67.1933
rfemur -17.6648 -4.52367 28.5955
rtibia 32.9737
rfoot -22.6102 -16.0928
rtoes -10.8879
lfemur -5.70089 -2.20585 -7.82913
ltibia 12.4497
lfoot -14.4747 -7.64141
ltoes -19.0551
380
root 12.0792 18.2267 10.554 -170.679 -15.4904 -176.537
lowerback -5.91402 1.68306 -3.29966
upperback 1.17914 1.58596 8.66018
thorax 4.22608 0.352894 11.3188
lowerneck -21.5706 -4.53251 -12.3257
upperneck 26.374 -4.6651 6.18438
head 12.8483 -2.72753 3.60077
rclavicle 2.38542e-015 7.15625e-014
rhumerus -25.608 -10.161 -76.0767
rradius 26.7849
rwrist -2.02991
rhand -12.834 9.00402
rfingers 7.12502
rthumb 13.2532 -20.5546
lclavicle 2.38542e-015 7.15625e-014
lhumerus -29.5456 0.6962 99.8564
lradius 28.7295
lwrist -5.53481
lhand -3.14214 38.6372
lfingers 7.12502
lthumb 22.5775 67.337
rfemur -17.8174 -4.48451 28.7961
rtibia 33.0785
rfoot -22.6502 -16.0895
rtoes -10.2352
lfemur -5.83459 -2.24256 -7.60454
ltibia 12.327
lfoot -14.3357 -7.79989
ltoes -19.38
381
root 12.0841 18.2362 10.5591 -170.644 -15.6681 -176.415
lowerback -5.82917 1.66932 -3.13191
upperback 1.07149 1.55387 8.68151
thorax 4.07484 0.348142 11.2298
lowerneck -21.5012 -4.48554 -12.194
upperneck 26.4571 -4.63328 6.06377
head 12.8568 -2.72357 3.53812
rclavicle -1.90833e-014 -2.38542e-014
rhumerus -25.6625 -10.2466 -76.0751
rradius 26.612
rwrist -2.12882
rhand -12.8911 9.19069
rfingers 7.12502
rthumb 13.1981 -20.3715
lclavicle -1.90833e-014 -2.38542e-014
lhumerus -29.6936 0.887343 99.698
lradius 28.6195
lwrist -5.66744
lhand -2.85682 38.5587
lfingers 7.12502
lthumb 22.8514 67.2249
rfemur -17.8713 -4.5962 28.9222
rtibia 33.1286
rfoot -22.9432 -15.669
rtoes -6.91707
lfemur -6.00338 -2.07485 -7.4452
ltibia 12.3461
lfoot -14.4096 -8.04756
ltoes -19.7914
382
root 12.088 18.2402 10.5629 -170.62 -15.7509 -176.45
lowerback -5.71768 1.67441 -3.15811
upperback 1.02195 1.56423 8.70435
thorax 3.95554 0.358489 11.2654
lowerneck -21.6106 -4.45759 -12.1373
upperneck 26.6929 -4.5852 5.93525
head 12.9647 -2.72369 3.48929
rclavicle 5.76476e-014 5.08889e-014
rhumerus -25.6673 -10.0682 -76.0542
rradius 26.5553
rwrist -2.41769
rhand -13.2144 9.40582
rfingers 7.12502
rthumb 12.8865 -20.1763
lclavicle 5.76476e-014 5.08889e-014
lhumerus -29.7586 0.983728 99.676
lradius 28.5245
lwrist -5.73867
lhand -2.98825 38.2645
lfingers 7.12502
lthumb 22.7252 66.9462
rfemur -17.7981 -4.22622 28.8783
rtibia 33.0555
rfoot -23.1992 -15.817
rtoes -4.79235
lfemur -6.17396 -2.15645 -7.44975
ltibia 12.5796
lfoot -14.5027 -8.18741
ltoes -18.1796
383
root 12.0941 18.2344 10.5686 -170.717 -15.9057 -176.361
lowerback -5.57382 1.68166 -3.11605
upperback 1.04567 1.55358 8.80595
thorax 3.89993 0.34826 11.3494
lowerneck -21.6591 -4.46293 -12.2086
upperneck 26.7336 -4.54523 5.88163
head 12.9882 -2.72109 3.48753
rclavicle 1.03368e-014 8.42847e-014
rhumerus -25.5846 -9.8667 -75.987
rradius 26.5669
rwrist -2.71822
rhand -13.5774 9.63277
rfingers 7.12502
rthumb 12.5366 -19.9711
lclavicle 1.03368e-014 8.42847e-014
lhumerus -29.7567 1.05105 99.7264
lradius 28.4877
lwrist -5.77395
lhand -3.00796 37.9231
lfingers 7.12502
lthumb 22.7063 66.6071
rfemur -17.7154 -3.97958 29.0291
rtibia 32.9098
rfoot -22.9548 -16.487
rtoes -5.00108
lfemur -6.33586 -2.29064 -7.2989
ltibia 12.9205
lfoot -14.5178 -8.38844
ltoes -16.3185
384
root 12.0982 18.2212 10.5796 -170.8 -16.0956 -176.188
lowerback -5.45137 1.69274 -2.92813
upperback 1.04984 1.53933 8.88101
thorax 3.84124 0.340683 11.3141
lowerneck -21.5644 -4.45748 -12.2456
upperneck 26.6236 -4.5256 5.88043
head 12.9231 -2.71287 3.4956
rclavicle 6.08281e-014 -7.95139e-014
rhumerus -25.6058 -9.70506 -75.979
rradius 26.6798
rwrist -3.00705
rhand -13.9868 10.5679
rfingers 7.12502
rthumb 12.1418 -19.0598
lclavicle 6.08281e-014 -7.95139e-014
lhumerus -29.7905 0.986635 99.7381
lradius 28.443
lwrist -5.77483
lhand -3.08488 37.4872
lfingers 7.12502
lthumb 22.6325 66.1803
rfemur -17.7538 -4.43823 29.3066
rtibia 32.7451
rfoot -22.393 -16.7828
rtoes -7.47884
lfemur -6.60533 -2.30293 -7.07533
ltibia 13.3495
lfoot -14.6179 -8.43002
ltoes -17.0154
385
root 12.1011 18.2218 10.5946 -170.835 -16.2526 -175.995
lowerback -5.31745 1.71478 -2.64
upperback 0.998458 1.54144 8.91398
thorax 3.71762 0.349907 11.1683
lowerneck -21.3854 -4.38777 -12.1882
upperneck 26.5279 -4.46759 5.88527
head 12.8393 -2.68127 3.49773
rclavicle 7.95139e-016 1.74931e-014
rhumerus -25.7149 -9.61086 -76.0022
rradius 26.7544
rwrist -3.14108
rhand -14.2808 11.4225
rfingers 7.12502
rthumb 11.8583 -18.2217
lclavicle 7.95139e-016 1.74931e-014
lhumerus -29.7756 0.90821 99.6881
lradius 28.2477
lwrist -5.81713
lhand -3.27093 37.2051
lfingers 7.12502
lthumb 22.4539 65.9198
rfemur -17.7902 -4.81483 29.5552
rtibia 32.5918
rfoot -22.3287 -16.5392
rtoes -8.63426
lfemur -6.97423 -2.42686 -6.83856
ltibia 13.8175
lfoot -14.8173 -8.30994
ltoes -18.0502
386
root 12.104 18.2277 10.6061 -170.84 -16.4055 -175.979
lowerback -5.19723 1.71908 -2.52462
upperback 0.955169 1.54637 8.89237
thorax 3.60644 0.3617 11.0667
lowerneck -21.2674 -4.31404 -12.1218
upperneck 26.5219 -4.42189 5.93712
head 12.8063 -2.65105 3.51578
rclavicle 1.59028e-014 5.40694e-014
rhumerus -25.7473 -9.97855 -75.9455
rradius 26.6502
rwrist -2.82191
rhand -14.2735 11.3448
rfingers 7.12502
rthumb 11.8653 -18.299
lclavicle 1.59028e-014 5.40694e-014
lhumerus -29.7811 0.920566 99.6049
lradius 28.1445
lwrist -5.94359
lhand -3.31142 37.2955
lfingers 7.12502
lthumb 22.4151 66.0149
rfemur -17.7583 -4.35742 29.5408
rtibia 32.5524
rfoot -22.6719 -16.6582
rtoes -6.17642
lfemur -7.2126 -2.51718 -6.79922
ltibia 14.0347
lfoot -14.9341 -8.28604
ltoes -18.6844
387
root 12.1053 18.2253 10.6132 -170.888 -16.5181 -176.081
lowerback -5.14672 1.72676 -2.55073
upperback 1.02897 1.5635 8.85675
thorax 3.65228 0.369123 11.0436
lowerneck -21.2939 -4.31235 -12.0916
upperneck 26.5188 -4.4285 5.95373
head 12.8105 -2.647 3.51615
rclavicle -9.93923e-015 1.30403e-013
rhumerus -25.6289 -10.3679 -75.8949
rradius 26.5733
rwrist -2.59187
rhand -14.3239 11.2873
rfingers 7.12502
rthumb 11.8168 -18.3593
lclavicle -9.93923e-015 1.30403e-013
lhumerus -29.716 0.934819 99.5828
lradius 28.1557
lwrist -6.04901
lhand -3.46742 37.4839
lfingers 7.12502
lthumb 22.2653 66.2213
rfemur -17.7114 -4.02892 29.419
rtibia 32.567
rfoot -22.6664 -17.0498
rtoes -5.06486
lfemur -7.22264 -2.4644 -6.90085
ltibia 14.056
lfoot -14.9029 -8.44014
ltoes -18.9799
